Sidecar TT Race 2: Craig Doyle presents more 600cc three wheeled action from the Isle of Man TT as the Sidecars tackle the 37 mile Mountain Course for the second time. Also in HD.


General
Complete name                            : TT.2013.Race.Day.6.SD.mp4
Format                                   : MPEG-4
Format profile                           : Base Media / Version 2
Codec ID                                 : mp42
File size                                : 404 MiB
Duration                                 : 45mn 40s
Overall bit rate mode                    : Variable
Overall bit rate                         : 1 236 Kbps
Encoded date                             : UTC 2013-06-06 21:26:04
Tagged date                              : UTC 2013-06-06 21:36:57
Writing application                      : HandBrake 0.9.9 2013051800

Video
ID                                       : 1
Format                                   : AVC
Format/Info                              : Advanced Video Codec
Format profile                           : High@L3.0
Format settings, CABAC                   : Yes
Format settings, ReFrames                : 4 frames
Codec ID                                 : avc1
Codec ID/Info                            : Advanced Video Coding
Duration                                 : 45mn 40s
Bit rate mode                            : Variable
Bit rate                                 : 1 104 Kbps
Width                                    : 640 pixels
Height                                   : 360 pixels
Display aspect ratio                     : 16:9
Frame rate mode                          : Variable
Frame rate                               : 25.000 fps
Minimum frame rate                       : 17.358 fps
Maximum frame rate                       : 44.687 fps
Color space                              : YUV
Chroma subsampling                       : 4:2:0
Bit depth                                : 8 bits
Scan type                                : Progressive
Bits/(Pixel*Frame)                       : 0.192
Stream size                              : 360 MiB (89%)
Writing library                          : x264 core 130 r2273 b3065e6
Encoding settings                        : cabac=1 / ref=1 / deblock=1:0:0 / analyse=0x3:0x113 / me=hex / subme=2 / psy=1 / psy_rd=1.00:0.00 / mixed_ref=0 / me_range=16 / chroma_me=1 / trellis=0 / 8x8dct=1 / cqm=0 / deadzone=21,11 / fast_pskip=1 / chroma_qp_offset=0 / threads=12 / lookahead_threads=2 / sliced_threads=0 / nr=0 / decimate=1 / interlaced=0 / bluray_compat=0 / constrained_intra=0 / bframes=3 / b_pyramid=2 / b_adapt=1 / b_bias=0 / direct=1 / weightb=1 / open_gop=0 / weightp=1 / keyint=250 / keyint_min=25 / scenecut=40 / intra_refresh=0 / rc_lookahead=10 / rc=crf / mbtree=1 / crf=20.0 / qcomp=0.60 / qpmin=0 / qpmax=69 / qpstep=4 / ip_ratio=1.40 / aq=1:1.00
Encoded date                             : UTC 2013-06-06 21:26:04
Tagged date                              : UTC 2013-06-06 21:36:57
Color primaries                          : BT.709
Transfer characteristics                 : BT.709
Matrix coefficients                      : BT.709

Audio
ID                                       : 2
Format                                   : AAC
Format/Info                              : Advanced Audio Codec
Format profile                           : LC
Codec ID                                 : 40
Duration                                 : 45mn 40s
Bit rate mode                            : Variable
Bit rate                                 : 128 Kbps
Maximum bit rate                         : 160 Kbps
Channel(s)                               : 2 channels
Channel positions                        : Front: L R
Sampling rate                            : 44.1 KHz
Compression mode                         : Lossy
Delay relative to video                  : 98ms
Stream size                              : 41.8 MiB (10%)
Encoded date                             : UTC 2013-06-06 21:26:04
Tagged date                              : UTC 2013-06-06 21:36:57